<svg xmlns="http://www.w3.org/2000/svg" viewBox="-5315.151 4820.856 18.554 19.681">
  <defs>
    <style>
      .cls-1 {
        fill: #00355f;
      }
    </style>
  </defs>
  <g id="graphic" transform="translate(-5315.151 4820.856)">
    <path id="Path_166" data-name="Path 166" class="cls-1" d="M13.221,17.418,8.555,9.266A.843.843,0,0,1,9.243,8h3.7a.815.815,0,0,1,.717.408c.618,1.054,2.263,3.823,3.247,5.453a.829.829,0,0,0,1.406,0l3.275-5.439A.815.815,0,0,1,22.371,8H26.11a.843.843,0,0,1,.731,1.265l-4.666,8.152a.829.829,0,0,0,0,.843l4.666,8.152a.843.843,0,0,1-.731,1.265H22.371a.815.815,0,0,1-.717-.408l-3.261-5.411a.829.829,0,0,0-1.406,0l-3.261,5.411a.815.815,0,0,1-.717.408H9.243a.843.843,0,0,1-.731-1.265l4.666-8.152a.829.829,0,0,0,.042-.843Z" transform="translate(-8.4 -7.998)"/>
  </g>
</svg>
