<svg xmlns="http://www.w3.org/2000/svg" viewBox="-4806.055 1831.905 28.521 23.288">
  <defs>
    <style>
      .cls-1 {
        fill: #fff;
      }
    </style>
  </defs>
  <g id="mpdszK.tif_1_" transform="translate(-4806.055 1831.905)">
    <g id="Group_30" data-name="Group 30">
      <path id="Path_23" data-name="Path 23" class="cls-1" d="M137.384,158.23c-.035-.372-.078-.7-.1-1.038a5.527,5.527,0,0,1,.865-3.4,5.872,5.872,0,0,1,9.106-1.1.39.39,0,0,0,.415.112,11.877,11.877,0,0,0,3.252-1.245c.052-.035.112-.052.173-.086a4.22,4.22,0,0,1-.908,1.79,5.787,5.787,0,0,1-1.487,1.34l.026.078c.536-.112,1.072-.2,1.6-.346s1.038-.346,1.6-.536c-.242.32-.441.614-.666.891a11.6,11.6,0,0,1-2.05,1.963.416.416,0,0,0-.182.372,17.087,17.087,0,0,1-3.286,10.551,15.538,15.538,0,0,1-7.87,5.837,17.252,17.252,0,0,1-7.3.787,16.7,16.7,0,0,1-6.218-1.92c-.208-.112-.406-.234-.605-.355a3.48,3.48,0,0,1-.346-.234,12.03,12.03,0,0,0,8.579-2.456,5.973,5.973,0,0,1-5.457-4c.45,0,.873.017,1.3-.009a10.643,10.643,0,0,0,1.254-.173,6.12,6.12,0,0,1-3.338-2.11,5.818,5.818,0,0,1-1.289-3.736,6.022,6.022,0,0,0,2.577.709c-2.6-2.162-3.183-4.756-1.782-7.861A16.873,16.873,0,0,0,137.384,158.23Z" transform="translate(-123.4 -151.01)"/>
    </g>
  </g>
</svg>
