<svg xmlns="http://www.w3.org/2000/svg" viewBox="0 0 22.85 16.85"><defs><style>.cls-1,.cls-2,.cls-3{fill:none;stroke:#00355f;stroke-miterlimit:10;}.cls-1{stroke-width:0.9px;}.cls-2,.cls-3{stroke-width:0.8px;}.cls-3{stroke-linecap:round;}</style></defs><title>st-distance</title><g id="Layer_2" data-name="Layer 2"><g id="graphic"><path class="cls-1" d="M4.35,16.4c-.66,0-3.9-4-3.9-8a3.7,3.7,0,0,1,4-4,3.73,3.73,0,0,1,4,4C8.45,12.38,5.13,16.4,4.35,16.4Z"/><ellipse class="cls-1" cx="4.45" cy="8.61" rx="1.83" ry="1.85"/><path class="cls-2" d="M18.35,12.4c-.66,0-3.9-4-3.9-8a3.7,3.7,0,0,1,4-4,3.73,3.73,0,0,1,4,4C22.45,8.38,19.13,12.4,18.35,12.4Z"/><circle class="cls-2" cx="18.45" cy="4.61" r="2"/><line class="cls-3" x1="7.45" y1="16.4" x2="16.45" y2="13.4"/></g></g></svg>