<svg xmlns="http://www.w3.org/2000/svg" viewBox="0 0 16.85 16.85"><defs><style>.cls-1,.cls-2{fill:none;stroke:#00355f;stroke-linecap:round;stroke-linejoin:round;}.cls-1{stroke-width:0.85px;}.cls-2{stroke-width:0.4px;}.cls-3{fill:#00355f;}</style></defs><title>st-popular</title><g id="Layer_2" data-name="Layer 2"><g id="graphic"><polyline class="cls-1" points="16.43 16.43 0.43 16.43 0.43 0.43"/><polyline class="cls-2" points="3.3 11.06 7.86 6.93 9.41 8.38 14.94 3.38"/><path class="cls-3" d="M14.2,6.65a.2.2,0,0,1-.14-.25l.81-3-3,.52a.2.2,0,1,1-.07-.4L15.12,3a.22.22,0,0,1,.18.07.21.21,0,0,1,0,.19l-.89,3.26a.35.35,0,0,1-.06.09A.19.19,0,0,1,14.2,6.65Z"/></g></g></svg>